<svg xmlns="http://www.w3.org/2000/svg" viewBox="0 0 470.49 98.09">
  <defs>
    <linearGradient id="bfLogoGrad1" x1="138.94" y1="101.43" x2="167.41" y2="101.43" gradientTransform="translate(-81.46 125.61) rotate(1) scale(1 -1)" gradientUnits="userSpaceOnUse">
      <stop offset="0" stop-color="#000"/><stop offset=".14" stop-color="#4d4d4d"/><stop offset=".17" stop-color="#495263"/>
      <stop offset=".25" stop-color="#405f95"/><stop offset=".33" stop-color="#396abd"/><stop offset=".4" stop-color="#3571d9"/>
      <stop offset=".46" stop-color="#3276ea"/><stop offset=".51" stop-color="#3178f1"/>
    </linearGradient>
    <linearGradient id="bfLogoGrad2" x1="132.6" y1="72.33" x2="154.58" y2="94.21" gradientTransform="translate(-81.46 125.61) rotate(1) scale(1 -1)" gradientUnits="userSpaceOnUse">
      <stop offset="0" stop-color="#3178f1"/><stop offset="1" stop-color="#6ecdff"/>
    </linearGradient>
    <radialGradient id="bfLogoRad1" cx="370.3" cy="366.59" fx="391.89" fy="366.59" r="28.07" gradientTransform="translate(-354.15 -79.88) rotate(52.93) scale(1 -.62)" gradientUnits="userSpaceOnUse">
      <stop offset="0" stop-color="#3178f1" stop-opacity="0"/><stop offset=".48" stop-color="#3178f1" stop-opacity="0"/>
      <stop offset=".81" stop-color="#4d4d4d" stop-opacity=".4"/><stop offset="1" stop-color="#000" stop-opacity=".8"/>
    </radialGradient>
    <linearGradient id="bfLogoGrad3" x1="-1282.51" y1="91.73" x2="-1254.05" y2="91.73" gradientTransform="translate(-1234.73 140.72) rotate(179)" gradientUnits="userSpaceOnUse">
      <stop offset="0" stop-color="#000"/><stop offset=".13" stop-color="#4d4d4d"/><stop offset=".15" stop-color="#465552"/>
      <stop offset=".26" stop-color="#277d6b"/><stop offset=".36" stop-color="#12997e"/><stop offset=".44" stop-color="#04aa89"/>
      <stop offset=".51" stop-color="#00b18d"/>
    </linearGradient>
    <linearGradient id="bfLogoGrad4" x1="-1288.86" y1="62.64" x2="-1266.87" y2="84.52" gradientTransform="translate(-1234.73 140.72) rotate(179)" gradientUnits="userSpaceOnUse">
      <stop offset="0" stop-color="#00b18d"/><stop offset="1" stop-color="#5ceec6"/>
    </linearGradient>
    <radialGradient id="bfLogoRad2" cx="-860.36" cy="-253.1" fx="-838.77" fy="-253.1" r="28.07" gradientTransform="translate(-588.99 670.49) rotate(127.07) scale(1 .62)" gradientUnits="userSpaceOnUse">
      <stop offset="0" stop-color="#00b18d" stop-opacity="0"/><stop offset=".44" stop-color="#00b18d" stop-opacity="0"/>
      <stop offset=".81" stop-color="#4d4d4d" stop-opacity=".4"/><stop offset="1" stop-color="#000" stop-opacity=".8"/>
    </radialGradient>
  </defs>
  <g>
    <g>
      <path fill="url(#bfLogoGrad1)" d="M84.83,9.39c-4.5-6.87-12.41-5.93-17.84-2.38-7.95,5.85-10.76,17.68-3.46,29.13-3.1-7.07-.45-14.9,5.13-17.71,7.96-4,16.09,2.95,14.12,11.59-1.73,7.61-6.54,13.45-12.39,19.43,13.84-12.95,22.24-28.13,14.43-40.05h0Z"/>
      <path fill="url(#bfLogoGrad2)" d="M101.61,7.37c-6.67-8.85-20.97-9.66-32.92-2.8l-.4,2.14c6.07-3.37,12.66-.85,15.77,3.82,7.97,11.96-2.84,27.51-13.65,38.91,1.57,5.12,6.21,11.33,10.23,14.35,27.59-26.95,27.54-47.74,20.97-56.44Z"/>
      <path fill="#3178f1" d="M66.8,70.72c-1.9-2.65-4.77-6.44-7.23-9.72-6.77,8.64-7.69,15.42-6.55,20.62.48,2.2,1.59,4.19,3.02,5.91l.58.7c1.47,1.5,3.41,2.92,5.01,3.07,8.45.85,14.44-7.59,5.17-20.58Z"/>
      <path fill="url(#bfLogoRad1)" d="M64.54,68.79c-1.9-2.65-3.54-5.26-4.97-7.8-6.77,8.64-7.69,15.42-6.55,20.62.48,2.2,1.59,4.19,3.02,5.91l.58.7c1.43,1.35,3.09,2.15,4.68,2.31,8.45.85,12.51-8.75,3.23-21.75h0Z"/>
      <path fill="#6ecdff" d="M81.47,64.86c-.27-.34-.56-.7-.84-1.05-3.33-4.19-6.95-9.11-10.23-14.35-3.13-4.98-5.6-10.56-7.96-15.72-6.23-13.63-.68-23.79,6.18-27.19l.03-.05.03-1.92c-7.78,4.66-12.15,11.71-13.69,15.73-3.18,8.33-4.87,23.93,4.56,40.7,1.43,2.55,3.08,5.14,4.97,7.8,9.27,12.99,5.21,22.59-3.23,21.75-1.59-.16-3.25-.96-4.68-2.31,10.28,10.97,21.57,12,28.28,6.94,6.59-4.96,8.3-15.72-3.43-30.3h0Z"/>
    </g>
    <g>
      <path fill="url(#bfLogoGrad3)" d="M20.39,9.39c4.5-6.87,12.41-5.93,17.84-2.38,7.95,5.85,10.76,17.68,3.46,29.13,3.1-7.07.45-14.9-5.13-17.71-7.96-4-16.09,2.95-14.12,11.59,1.73,7.61,6.54,13.45,12.39,19.43-13.84-12.95-22.24-28.13-14.43-40.05h0Z"/>
      <path fill="url(#bfLogoGrad4)" d="M3.61,7.37C10.28-1.48,24.58-2.29,36.53,4.57l.4,2.14c-6.07-3.37-12.66-.85-15.77,3.82-7.97,11.96,2.84,27.51,13.65,38.91-1.57,5.12-6.21,11.33-10.23,14.35C-3,36.85-2.95,16.07,3.61,7.37Z"/>
      <path fill="#00b18d" d="M38.42,70.72c1.9-2.65,4.77-6.44,7.23-9.72,6.77,8.64,7.69,15.42,6.55,20.62-.48,2.2-1.59,4.19-3.02,5.91l-.58.7c-1.47,1.5-3.41,2.92-5.01,3.07-8.45.85-14.44-7.59-5.17-20.58Z"/>
      <path fill="url(#bfLogoRad2)" d="M40.68,68.79c1.9-2.65,3.54-5.26,4.97-7.8,6.77,8.64,7.69,15.42,6.55,20.62-.48,2.2-1.59,4.19-3.02,5.91l-.58.7c-1.43,1.35-3.09,2.15-4.68,2.31-8.45.85-12.51-8.75-3.23-21.75h0Z"/>
      <path fill="#5ceec6" d="M40.68,68.79c1.9-2.65,3.54-5.26,4.97-7.8,4.54-8.06,6.49-15.85,6.96-22.68v-6.57c-.32-4.55-1.26-8.46-2.39-11.45-1.53-4.01-5.91-11.06-13.69-15.73l.03,1.92.03.05c6.86,3.4,12.42,13.57,6.18,27.19-2.37,5.16-4.84,10.74-7.96,15.72-3.28,5.24-6.91,10.16-10.23,14.35-.28.35-.57.71-.84,1.05-11.72,14.59-10.01,25.34-3.43,30.3,6.71,5.07,18,4.04,28.28-6.94-1.43,1.35-3.09,2.15-4.68,2.31-8.45.85-12.51-8.75-3.23-21.75h-.02Z"/>
    </g>
  </g>
  <g fill="#14202b">
    <path d="M159,32.02c-.91-.73-2.04-1.33-3.39-1.8,1.23-.71,2.23-1.47,2.97-2.3,2.05-2.29,3.1-5.23,3.1-8.75,0-4.83-1.73-8.55-5.14-11.07-2.81-2.06-6.76-3.11-11.73-3.11h-15.06v51.68h15.02c3.45,0,6.16-.21,8.04-.64,3.3-.73,5.92-2.3,7.77-4.65,1.95-2.45,2.94-5.51,2.94-9.07,0-4.45-1.53-7.91-4.53-10.29h.02ZM150.82,25.47c-1.48,1.18-4,1.78-7.48,1.78h-5.31v-15.11h4.15c2.37,0,4.15.08,5.27.24,1.84.28,3.25.92,4.19,1.92,1.28,1.32,1.9,3.01,1.9,5.15,0,2.63-.88,4.59-2.71,6.01h-.01ZM138.02,34.37h6.77c3.54,0,6.11.52,7.66,1.54,1.87,1.24,2.78,3.22,2.78,6.03,0,3.77-1.74,6.11-5.29,7.13-1.21.33-3.46.51-6.68.51h-5.24v-15.22h0Z"/>
    <path d="M200.09,35.36c0,3.42-.21,5.85-.65,7.23-.71,2.28-2.13,4.05-4.33,5.4-3.48,2.14-7.3,2.42-11.21.67-2.29-1.02-3.85-2.5-4.77-4.52-.81-1.72-1.21-4.61-1.21-8.59V4.99h-8.28v30.41c0,4.31.32,7.49.99,9.72,1.15,3.84,3.55,6.94,7.11,9.25,3.3,2.14,7.14,3.22,11.43,3.22,3.54,0,6.81-.77,9.71-2.3,3.53-1.84,6.16-4.58,7.8-8.15,1.26-2.73,1.87-6.57,1.87-11.74V4.99h-8.46v30.37h0Z"/>
    <polygon points="214.25 12.36 226.88 12.36 226.88 56.67 235.16 56.67 235.16 12.36 247.82 12.36 247.82 4.99 214.25 4.99 214.25 12.36"/>
    <polygon points="253.06 12.36 265.68 12.36 265.68 56.67 273.97 56.67 273.97 12.36 286.63 12.36 286.63 4.99 253.06 4.99 253.06 12.36"/>
    <path d="M291.68,11.06v39.54c0,3.35,2.72,6.07,6.07,6.07h21.82v-7.37h-19.61v-15.01h19.61v-7.37h-19.61v-14.56h19.61v-7.37h-21.82c-3.35,0-6.07,2.72-6.07,6.07h0Z"/>
    <path d="M348.44,35.54c.22-.08.48-.16.87-.25,3.3-.82,6.02-2.48,8.1-4.91,2.26-2.67,3.4-6,3.4-9.9,0-4.1-1.25-7.56-3.71-10.28-3.12-3.46-7.9-5.21-14.21-5.21h-14.62v51.68h8.28v-20.88h.5l15.23,20.88h10.57l-15.46-20.84c.47-.09.75-.18,1.06-.29h.01ZM336.54,12.4h6.26c3.31,0,5.77.74,7.31,2.2,1.56,1.49,2.31,3.54,2.31,6.29,0,3-.95,5.17-2.9,6.65-1.77,1.34-4.36,2.01-7.69,2.01h-5.28V12.4Z"/>
    <path d="M367.69,11.06v45.61h8.28v-22.38h19.39v-7.37h-19.39v-14.56h19.39v-7.37h-21.6c-3.35,0-6.07,2.72-6.07,6.07h0Z"/>
    <path d="M411.71,4.99h-8.28v45.61c0,3.35,2.72,6.07,6.07,6.07h19.74v-7.7h-17.54V4.99h0Z"/>
    <polygon points="460.69 4.99 448.64 25.31 436.4 4.99 426.57 4.99 444.54 34.09 444.54 56.67 452.82 56.67 452.82 34.09 470.49 4.99 460.69 4.99"/>
    <path d="M129.74,76.91v16.29h3.11v-7.93h6.88v-2.8h-6.88v-5h7.32v-2.8h-8.2c-1.23,0-2.24,1-2.24,2.24h0Z"/>
    <path d="M177.95,77.55c-.88-1.01-1.93-1.8-3.11-2.36s-2.44-.84-3.74-.84-2.54.25-3.65.74c-1.11.49-2.09,1.18-2.91,2.05-.81.86-1.45,1.9-1.91,3.06-.46,1.17-.69,2.45-.69,3.82,0,1.15.16,2.25.49,3.26.32,1.02.82,1.95,1.47,2.76.86,1.09,1.94,1.95,3.2,2.55s2.59.92,3.98.92c1.07,0,2.13-.19,3.14-.57s1.95-.93,2.78-1.66c1.02-.87,1.8-1.94,2.34-3.18.53-1.23.8-2.58.8-4.01s-.17-2.58-.51-3.63c-.34-1.05-.9-2.04-1.66-2.93h0ZM176.95,84.09c0,.84-.15,1.7-.44,2.52-.29.82-.67,1.5-1.14,2.02-.55.62-1.22,1.11-1.98,1.45-1.53.69-3.34.67-4.75.03-.72-.32-1.34-.78-1.86-1.37-.53-.59-.94-1.3-1.24-2.11-.3-.81-.45-1.71-.45-2.68s.16-1.86.46-2.67c.3-.81.72-1.52,1.25-2.11.52-.58,1.15-1.05,1.87-1.37.72-.32,1.52-.49,2.37-.49.73,0,1.45.16,2.15.45.7.3,1.34.72,1.87,1.24.64.62,1.11,1.34,1.41,2.15.3.82.46,1.8.46,2.93h0Z"/>
    <path d="M211.82,85.41c0,.57-.02,1.06-.05,1.47-.03.39-.09.74-.17,1.03-.07.27-.18.51-.32.72-.14.22-.32.43-.53.65-.34.36-.77.64-1.27.84-1.02.41-2.03.41-3.07,0-.51-.2-.94-.45-1.26-.76-.36-.36-.63-.83-.78-1.39-.16-.59-.25-1.44-.25-2.53v-10.94h-3.11v10.89c0,.7.02,1.32.07,1.85.05.55.13,1.04.25,1.49.12.45.29.86.49,1.21.2.35.44.7.72,1.03.64.78,1.45,1.37,2.4,1.78.94.4,1.97.6,3.07.6s2.06-.2,2.97-.57c.91-.39,1.7-.95,2.34-1.66.61-.68,1.04-1.48,1.3-2.36.25-.86.37-1.99.37-3.35v-10.89h-3.17v10.89h0Z"/>
    <path d="M248.64,86.99l-8.21-11.59c-.32-.46-.85-.73-1.41-.73h-.08c-.96,0-1.74.78-1.74,1.74v16.79h3.11v-12.52l8.3,11.78c.32.46.86.74,1.42.74.96,0,1.74-.78,1.74-1.74v-16.79h-3.11v12.32h0Z"/>
    <path d="M285.66,77.08c-.78-.78-1.74-1.39-2.85-1.8-1.1-.41-2.36-.61-3.72-.61h-2.89c-1.23,0-2.24,1-2.24,2.24v14.06c0,1.23,1,2.24,2.24,2.24h2.49c2.68,0,4.84-.72,6.43-2.15.95-.84,1.68-1.91,2.18-3.18.49-1.26.74-2.68.74-4.22,0-1.37-.2-2.62-.61-3.72-.41-1.11-1.01-2.07-1.78-2.86h0ZM282.67,89.18c-.29.23-.59.42-.91.57-.3.15-.66.28-1.05.38-.4.1-.86.17-1.39.21-.54.04-1.18.07-1.91.07h-.34v-12.96h1.93c1.89,0,3.35.54,4.36,1.6,1.01,1.07,1.52,2.63,1.52,4.64,0,2.47-.74,4.32-2.21,5.49h0Z"/>
    <path d="M315.89,74.66c-.97,0-1.86.61-2.2,1.52l-6.4,17.01h3.25l1.61-4.07h7.25l1.45,4.07h3.44l-6.24-16.99c-.34-.92-1.22-1.54-2.2-1.54h0ZM318.43,86.32h-5.28l2.68-7.12,2.59,7.12Z"/>
    <polygon points="343.62 77.46 348.12 77.46 348.12 93.19 351.23 93.19 351.23 77.46 355.7 77.46 355.7 74.66 343.62 74.66 343.62 77.46"/>
    <rect x="376.15" y="74.68" width="3.11" height="18.53"/>
    <path d="M416.16,77.57c-.88-1.01-1.93-1.8-3.11-2.36s-2.44-.84-3.74-.84-2.54.25-3.65.74c-1.11.49-2.09,1.18-2.91,2.05-.81.86-1.45,1.9-1.91,3.06-.46,1.17-.69,2.45-.69,3.82,0,1.15.16,2.24.49,3.26.32,1.02.82,1.95,1.47,2.76.86,1.09,1.94,1.95,3.2,2.55s2.59.92,3.98.92c1.07,0,2.13-.19,3.14-.57s1.95-.93,2.78-1.66c1.02-.87,1.8-1.94,2.34-3.18.53-1.23.8-2.58.8-4.01s-.17-2.58-.51-3.63c-.34-1.05-.9-2.04-1.66-2.93h0ZM415.17,84.1c0,.84-.15,1.7-.44,2.52-.29.82-.67,1.5-1.14,2.02-.55.62-1.22,1.11-1.98,1.45-1.53.69-3.34.67-4.75.03-.72-.32-1.34-.78-1.86-1.37-.53-.59-.94-1.3-1.24-2.11-.3-.81-.45-1.71-.45-2.68s.16-1.86.46-2.67c.3-.81.72-1.52,1.25-2.11.52-.58,1.15-1.05,1.87-1.37.72-.32,1.52-.49,2.37-.49.73,0,1.45.16,2.15.45.7.3,1.34.72,1.87,1.24.64.62,1.11,1.34,1.41,2.15.3.82.46,1.8.46,2.93h0Z"/>
    <path d="M450.66,87l-8.21-11.59c-.32-.46-.85-.73-1.41-.73h-.08c-.96,0-1.74.78-1.74,1.74v16.79h3.11v-12.52l8.3,11.78c.32.46.86.74,1.42.74.96,0,1.74-.78,1.74-1.74v-16.79h-3.11v12.32h0Z"/>
  </g>
</svg>
