<?xml version="1.0" encoding="UTF-8"?>
<svg id="Logo" xmlns="http://www.w3.org/2000/svg" viewBox="0 0 300 300">
  <defs>
    <style>
      .cls-1 {
        fill: #14202b;
      }
    </style>
  </defs>
  <g>
    <path class="cls-1" d="M185.92,207.24c26.99,36.44,15.93,63.92-8.11,61.94-1.58-.13-3.18-.5-4.78-1.06,27.74,24.23,55.02,23.65,70.74,11.36,5.85-4.57,13.12-12.84,14.55-26.28.71-6.7-.18-13.87-2.57-21.35-3.77-10.97-10.78-23.24-21.91-36.61-.8-.96-1.62-1.97-2.44-2.96-9.65-11.75-20.19-25.56-29.78-40.28-9.13-14.01-16.42-29.71-23.39-44.26-18.1-37.77-3.59-66.58,15.27-77.05,17.08-9.88,35.91-3.04,44.98,10.08,21.7,31.39-3.03,72.49-30.97,104.63.41.65.81,1.32,1.23,1.96,7.76,11.9,16.93,24.37,27.26,37.09,64.15-67.77,71.62-125.3,50.54-152.26-17.8-22.77-57.34-26.52-89.56-9.02-.81.46-1.63.91-2.43,1.39h0c-21.87,13.64-33.95,33.88-38.1,45.36-8.62,23.85-12.65,68.24,14.98,115.4,4.2,7.16,9,14.48,14.51,21.92Z"/>
    <g>
      <path class="cls-1" d="M224.99,68.81c7.42,8.57,7.06,21.06,2.46,34.28,1.83-3.35,3.43-6.63,4.8-9.82,8.29-19.36,8.04-34.95-.77-47.68-4.74-6.86-12.78-11.12-20.97-11.12-4.4,0-8.71,1.2-12.78,3.55l-.16.09c-8.21,4.57-14.56,13-17.41,23.15-1.47,5.24-1.99,10.83-1.6,16.66,8.39-18.22,32.13-25.63,46.43-9.11Z"/>
      <path class="cls-1" d="M178.51,260.72c.58.05,1.16.07,1.71.07,3.68,0,8.61-1.08,11.2-6.23,3.72-7.38,2.43-22.35-12.32-42.27-3.74-5.06-7.26-10.21-10.55-15.4-10.55,16.72-14.02,31.97-10.59,46.37.13.56.29,1.12.46,1.68,5.15,14.6,17.38,15.56,20.08,15.78Z"/>
    </g>
  </g>
  <g>
    <path class="cls-1" d="M114.08,207.24c-26.99,36.44-15.93,63.92,8.11,61.94,1.58-.13,3.18-.5,4.78-1.06-27.74,24.23-55.02,23.65-70.74,11.36-5.85-4.57-13.12-12.84-14.55-26.28-.71-6.7.18-13.87,2.57-21.35,3.77-10.97,10.78-23.24,21.91-36.61.8-.96,1.62-1.97,2.44-2.96,9.65-11.75,20.19-25.56,29.78-40.28,9.13-14.01,16.42-29.71,23.39-44.26,18.1-37.77,3.59-66.58-15.27-77.05-17.08-9.88-35.91-3.04-44.98,10.08-21.7,31.39,3.03,72.49,30.97,104.63-.41.65-.81,1.32-1.23,1.96-7.76,11.9-16.93,24.37-27.26,37.09C-.13,116.68-7.6,59.15,13.48,32.19,31.28,9.42,70.82,5.67,103.04,23.17c.81.46,1.63.91,2.43,1.39h0c21.87,13.64,33.95,33.88,38.1,45.36,8.62,23.85,12.65,68.24-14.98,115.4-4.2,7.16-9,14.48-14.51,21.92Z"/>
    <g>
      <path class="cls-1" d="M75.01,68.81c-7.42,8.57-7.06,21.06-2.46,34.28-1.83-3.35-3.43-6.63-4.8-9.82-8.29-19.36-8.04-34.95.77-47.68,4.74-6.86,12.78-11.12,20.97-11.12,4.4,0,8.71,1.2,12.78,3.55l.16.09c8.21,4.57,14.56,13,17.41,23.15,1.47,5.24,1.99,10.83,1.6,16.66-8.39-18.22-32.13-25.63-46.43-9.11Z"/>
      <path class="cls-1" d="M121.49,260.72c-.58.05-1.16.07-1.71.07-3.68,0-8.61-1.08-11.2-6.23-3.72-7.38-2.43-22.35,12.32-42.27,3.74-5.06,7.26-10.21,10.55-15.4,10.55,16.72,14.02,31.97,10.59,46.37-.13.56-.29,1.12-.46,1.68-5.15,14.6-17.38,15.56-20.08,15.78Z"/>
    </g>
  </g>
</svg>